<svg height="512" viewBox="0 0 512 512" width="512" xmlns="http://www.w3.org/2000/svg"><g id="Flat"><path d="m488 104v320h-304v-400h224z" fill="#4db7e5"/><path d="m408 24h80v80z" fill="#3b9dc7"/><path d="m408 24v80h80z" fill="#79c6e8"/><path d="m488 120v304h-304v-57.9z" fill="#4aafdb"/><path d="m264 208v216h-80v-240h56a23.968 23.968 0 0 1 24 24z" fill="#4aafdb"/><g fill="#3b9dc7"><path d="m296 64h88v16h-88z"/><path d="m296 96h88v16h-88z"/><path d="m296 128h160v16h-160z"/><path d="m296 160h160v16h-160z"/><path d="m296 192h160v16h-160z"/><path d="m408 224h48v16h-48z"/><path d="m296 224h16v16h-16z"/></g><rect fill="#4d5e78" height="320" rx="24" width="224" x="24" y="168"/><path d="m248 230.01v233.99a23.968 23.968 0 0 1 -24 24h-176a23.968 23.968 0 0 1 -24-24v-52.65z" fill="#485870"/><path d="m56 296h32v32h-32z" fill="#b0b0ae"/><path d="m120 296h32v32h-32z" fill="#b0b0ae"/><path d="m184 296h32v32h-32z" fill="#b0b0ae"/><path d="m56 360h32v32h-32z" fill="#b0b0ae"/><path d="m120 360h32v32h-32z" fill="#b0b0ae"/><path d="m184 360h32v96h-32z" fill="#f98500"/><path d="m56 424h32v32h-32z" fill="#b0b0ae"/><path d="m120 424h32v32h-32z" fill="#b0b0ae"/><path d="m56 200h160v64h-160z" fill="#7eb457"/><path d="m56 200h160v16h-160z" fill="#5f943a"/><path d="m176 224h16v16h-16z" fill="#5f943a"/><path d="m144 224h16v16h-16z" fill="#5f943a"/><path d="m112 224h16v16h-16z" fill="#5f943a"/><path d="m152 168h-96v-144l16 8 16-8 16 8 16-8 16 8 16-8z" fill="#60d1e0"/><path d="m80 64h48v16h-48z" fill="#3fb7c7"/><path d="m80 96h48v16h-48z" fill="#3fb7c7"/><path d="m80 128h48v16h-48z" fill="#3fb7c7"/><path d="m280 88v-3.007a21.016 21.016 0 0 0 -20.993-20.993h-3.007v-16h-16v16h-3.007a20.993 20.993 0 0 0 -3.451 41.7l26.286 4.381a4.993 4.993 0 0 1 -.821 9.918h-22.014a5 5 0 0 1 -4.993-4.992v-3.007h-16v3.007a21.016 21.016 0 0 0 20.993 20.993h3.007v16h16v-16h3.007a20.993 20.993 0 0 0 3.451-41.7l-26.286-4.381a4.993 4.993 0 0 1 .821-9.919h22.014a5 5 0 0 1 4.993 4.993v3.007z" fill="#3b9dc7"/><path d="m488 384v-48h-35.146a95.275 95.275 0 0 0 -10.222-24.691l24.848-24.848-33.941-33.941-24.848 24.848a95.275 95.275 0 0 0 -24.691-10.222v-35.146h-48v35.146a95.275 95.275 0 0 0 -24.691 10.222l-24.848-24.848-33.941 33.941 24.848 24.848a95.275 95.275 0 0 0 -10.222 24.691h-35.146v48h35.146a95.275 95.275 0 0 0 10.222 24.691l-24.848 24.848 33.941 33.941 24.848-24.848a95.31 95.31 0 0 0 24.691 10.222v35.146h48v-35.146a95.31 95.31 0 0 0 24.691-10.222l24.848 24.848 33.941-33.941-24.848-24.848a95.275 95.275 0 0 0 10.222-24.691zm-128-8a16 16 0 1 1 16-16 16 16 0 0 1 -16 16z" fill="#f35244"/><path d="m360 424a64 64 0 1 1 64-64 64.072 64.072 0 0 1 -64 64zm0-112a48 48 0 1 0 48 48 48.055 48.055 0 0 0 -48-48z" fill="#cf3b2e"/></g></svg>