<?xml version="1.0" encoding="iso-8859-1"?>
<!-- Generator: Adobe Illustrator 19.0.0, SVG Export Plug-In . SVG Version: 6.00 Build 0)  -->
<svg version="1.1" id="Capa_1" xmlns="http://www.w3.org/2000/svg" xmlns:xlink="http://www.w3.org/1999/xlink" x="0px" y="0px"
	 viewBox="0 0 512.012 512.012" style="enable-background:new 0 0 512.012 512.012;" xml:space="preserve">
<g>
	<g transform="translate(1 1)">
		<path style="fill:#4E342E;" d="M202.349,355.956L65.815,492.489c-13.348,13.312-34.951,13.312-48.299,0
			c-2.91-2.93-5.253-6.373-6.912-10.155c-5.884-12.911-3.128-28.119,6.912-38.144L154.05,307.657l31.232,31.232L202.349,355.956z"/>
		<path style="fill:#795548;" d="M185.282,338.889L48.749,475.423c-6.406,6.401-15.094,9.993-24.149,9.984
			c-4.832,0.001-9.607-1.047-13.995-3.072c-5.884-12.911-3.128-28.119,6.912-38.144l42.667-42.667l30.208-30.208l63.659-63.659
			L185.282,338.889z"/>
		<path style="fill:#283593;" d="M502.466,212.34c-0.029,113.096-91.704,204.771-204.8,204.8c-4.352,0-8.619-0.171-12.8-0.427
			C176.944,409.968,92.867,320.473,92.867,212.34S176.944,14.712,284.866,7.967c4.181-0.256,8.448-0.427,12.8-0.427
			C410.762,7.569,502.437,99.244,502.466,212.34z"/>
		<ellipse style="fill:#3F51B5;" cx="284.866" cy="212.34" rx="192" ry="204.373"/>
		<path style="fill:#00838F;" d="M468.333,212.34c-0.095,94.217-76.449,170.572-170.667,170.667c-4.352,0-8.619-0.171-12.8-0.512
			c-89.037-6.678-157.871-80.867-157.871-170.155S195.829,48.863,284.866,42.185c4.181-0.342,8.448-0.512,12.8-0.512
			C391.883,41.768,468.238,118.122,468.333,212.34z"/>
		<ellipse style="fill:#00BCD4;" cx="284.866" cy="212.34" rx="157.867" ry="170.155"/>
		<g>
			<path style="fill:#FFFFFF;" d="M297.661,263.54c-9.426-0.001-17.066-7.643-17.065-17.069v-26.269
				c0.069-12.702,9.412-23.447,21.982-25.278c9.416-1.384,17.83-6.626,23.223-14.468c5.393-7.842,7.277-17.574,5.2-26.862
				c-2.801-12.917-12.89-23.008-25.807-25.811c-10.127-2.268-20.735,0.186-28.837,6.671c-8.102,6.484-12.821,16.298-12.827,26.675
				c0.014,6.106-3.236,11.754-8.522,14.811c-5.286,3.057-11.802,3.057-17.088,0c-5.286-3.057-8.535-8.705-8.522-14.811
				c0.014-35.467,27.189-65.014,62.532-67.989c35.342-2.975,67.074,21.613,73.018,56.578c5.944,34.966-15.882,68.657-50.222,77.527
				v19.226C314.727,255.897,307.087,263.539,297.661,263.54z"/>
			<circle style="fill:#FFFFFF;" cx="297.666" cy="314.74" r="17.067"/>
		</g>
		
			<rect x="93.71" y="414.091" transform="matrix(-0.7071 0.7071 -0.7071 -0.7071 497.8031 646.1173)" style="fill:#CFD8DC;" width="42.752" height="24.132"/>
		
			<rect x="69.541" y="379.941" transform="matrix(-0.7071 0.7071 -0.7071 -0.7071 439.4798 622.0131)" style="fill:#FFFFFF;" width="42.752" height="44.169"/>
	</g>
	<g>
		<path d="M314.899,87.007c-22.701-4.887-46.395,0.752-64.461,15.34s-28.569,36.563-28.572,59.785
			c-0.017,9.156,4.859,17.624,12.785,22.207c7.927,4.583,17.698,4.583,25.625,0s12.802-13.051,12.785-22.207
			c0.002-7.812,3.564-15.196,9.676-20.061c6.112-4.865,14.107-6.68,21.72-4.93c9.607,2.085,17.108,9.592,19.188,19.2
			c1.581,7.079,0.13,14.496-4,20.458c-4.044,5.78-10.289,9.641-17.267,10.675c-16.768,2.444-29.231,16.78-29.317,33.725v26.275
			c0,14.139,11.461,25.6,25.6,25.6c14.138,0,25.6-11.461,25.6-25.6v-12.925c32.401-11.446,53.262-43.015,51.086-77.309
			S348.487,94.265,314.899,87.007L314.899,87.007z M347.599,196.382c-8.171,11.66-20.227,20.03-34.008,23.608
			c-3.766,0.972-6.397,4.369-6.396,8.258v19.225c0,4.713-3.82,8.533-8.533,8.533s-8.533-3.821-8.533-8.533v-26.275
			c0.048-8.466,6.286-15.622,14.667-16.825c11.746-1.721,22.249-8.248,28.993-18.019c6.744-9.77,9.122-21.905,6.566-33.498
			c-3.515-16.227-16.187-28.904-32.412-32.425c-3.088-0.656-6.235-0.988-9.392-0.992c-9.765-0.024-19.233,3.352-26.779,9.55
			c-9.996,8.096-15.795,20.278-15.775,33.142c0.01,3.054-1.614,5.881-4.258,7.411c-2.644,1.53-5.903,1.53-8.547,0
			c-2.644-1.53-4.267-4.356-4.258-7.411c-0.033-18.001,8.083-35.05,22.075-46.375c23.122-18.817,56.58-17.702,78.398,2.613
			C361.223,138.684,364.72,171.977,347.599,196.382L347.599,196.382z"/>
		<path d="M298.666,290.14c-14.138,0-25.6,11.462-25.6,25.6c0,14.138,11.462,25.6,25.6,25.6c14.138,0,25.6-11.462,25.6-25.6
			C324.251,301.608,312.798,290.155,298.666,290.14z M298.666,324.273c-4.713,0-8.533-3.82-8.533-8.533s3.821-8.533,8.533-8.533
			c4.713,0,8.533,3.82,8.533,8.533C307.195,320.451,303.377,324.269,298.666,324.273z"/>
		<path d="M298.666,0.007C220.14-0.045,147.942,43.075,110.754,112.238S77.41,265.407,120.758,330.885l-35.392,35.391l-0.008,0.005
			l-0.005,0.008l-30.198,30.197l-0.005,0.003l-0.003,0.005l-42.664,42.662c-16.651,16.673-16.642,43.685,0.02,60.347
			c16.662,16.662,43.674,16.671,60.347,0.02l42.662-42.664l0.005-0.003l0.003-0.005l30.197-30.198l0.008-0.005l0.005-0.008
			l35.391-35.392c76.128,50.304,175.823,46.611,248.02-9.188s100.902-151.344,71.413-237.694
			C471.064,58.016,389.913-0.011,298.666,0.007z M109.482,438.756L73.25,402.524l18.142-18.142l36.231,36.231L109.482,438.756z
			 M60.783,487.457c-10.15,9.65-26.083,9.65-36.233,0c-9.983-10.015-9.983-26.219,0-36.233l36.634-36.633l36.233,36.233
			L60.783,487.457z M139.689,408.547l-36.23-36.23l27.438-27.438c10.59,13.477,22.753,25.639,36.229,36.229L139.689,408.547z
			 M298.666,409.607c-108.395,0-196.267-87.872-196.267-196.267S190.271,17.073,298.666,17.073s196.267,87.872,196.267,196.267
			C494.811,321.685,407.011,409.485,298.666,409.607z"/>
		<path d="M298.666,34.14c-98.969,0-179.2,80.231-179.2,179.2s80.231,179.2,179.2,179.2s179.2-80.231,179.2-179.2
			C477.754,114.417,397.589,34.252,298.666,34.14z M298.666,375.473c-89.544,0-162.133-72.59-162.133-162.133
			s72.59-162.133,162.133-162.133s162.133,72.59,162.133,162.133C460.698,302.842,388.168,375.372,298.666,375.473z"/>
	</g>
</g>
<g>
</g>
<g>
</g>
<g>
</g>
<g>
</g>
<g>
</g>
<g>
</g>
<g>
</g>
<g>
</g>
<g>
</g>
<g>
</g>
<g>
</g>
<g>
</g>
<g>
</g>
<g>
</g>
<g>
</g>
</svg>
